<?xml version="1.0" encoding="UTF-8"?>
<svg width="23px" height="23px" viewBox="0 0 23 23" version="1.1" xmlns="http://www.w3.org/2000/svg" xmlns:xlink="http://www.w3.org/1999/xlink">
    <!-- Generator: Sketch 47 (45396) - http://www.bohemiancoding.com/sketch -->
    <title>instagram</title>
    <desc>Created with Sketch.</desc>
    <defs></defs>
    <g id="jeanius_desktop" stroke="none" stroke-width="1" fill="none" fill-rule="evenodd">
        <g id="post" transform="translate(-708.000000, -3165.000000)">
            <g id="section-share" transform="translate(434.000000, 3131.000000)">
                <g id="instagram" transform="translate(274.000000, 34.000000)">
                    <g id="Group-3" fill="#000000">
                        <path d="M11.496372,0.00726051587 C8.37416766,0.00726051587 7.98262004,0.0204946429 6.75645536,0.0764430556 C5.53275496,0.132254563 4.69708829,0.32661369 3.96578869,0.610827976 C3.20984623,0.90457996 2.5686756,1.29767917 1.92955853,1.93679623 C1.29039583,2.57595893 0.897342262,3.21708393 0.603544643,3.97302639 C0.319330357,4.70432599 0.125016865,5.53999266 0.0691597222,6.76369306 C0.0132113095,7.98990337 2.28174603e-05,8.38135972 2.28174603e-05,11.5036097 C2.28174603e-05,14.6258597 0.0132113095,15.0173617 0.0691597222,16.243572 C0.125016865,17.4672268 0.319330357,18.3029391 0.603544643,19.0341931 C0.897342262,19.7901355 1.29039583,20.4313062 1.92955853,21.0704232 C2.5686756,21.7095859 3.20984623,22.1026395 3.96578869,22.3964827 C4.69708829,22.6806514 5.53275496,22.8750105 6.75645536,22.9308677 C7.98262004,22.9867704 8.37416766,23.0000046 11.496372,23.0000046 C14.618622,23.0000046 15.0100784,22.9867704 16.2362887,22.9308677 C17.4599891,22.8750105 18.2956558,22.6806514 19.0269554,22.3964827 C19.7829435,22.1026395 20.4240685,21.7095859 21.0631855,21.0704232 C21.7023482,20.4313062 22.0954018,19.7901812 22.3891994,19.0341931 C22.6734137,18.3029391 22.8677728,17.4672268 22.9235843,16.243572 C22.9795327,15.0173617 22.9927669,14.6258597 22.9927669,11.5036097 C22.9927669,8.38140536 22.9795327,7.98990337 22.9235843,6.76369306 C22.8677728,5.53999266 22.6734137,4.70432599 22.3891994,3.97302639 C22.0954018,3.21708393 21.7023482,2.57595893 21.0631855,1.93679623 C20.4240685,1.29767917 19.7829435,0.90457996 19.0269554,0.610827976 C18.2956558,0.32661369 17.4599891,0.132254563 16.2362887,0.0764430556 C15.0100784,0.0204946429 14.618622,0.00726051587 11.496372,0.00726051587" id="Fill-1"></path>
                    </g>
                    <path d="M11.5,16.030303 C9.382934,16.030303 7.66666667,14.3140255 7.66666667,12.1969469 C7.66666667,10.0798683 9.382934,8.36363636 11.5,8.36363636 C13.617066,8.36363636 15.3333333,10.0798683 15.3333333,12.1969469 C15.3333333,14.3140255 13.617066,16.030303 11.5,16.030303 M11.5000229,6.27272727 C8.22815601,6.27272727 5.57575758,8.92507991 5.57575758,12.1969468 C5.57575758,15.4688595 8.22815601,18.1212121 11.5000229,18.1212121 C14.7718898,18.1212121 17.4242424,15.4688595 17.4242424,12.1969468 C17.4242424,8.92507991 14.7718898,6.27272727 11.5000229,6.27272727" id="Fill-4" fill="#FFFFFF"></path>
                    <path d="M18.8181818,5.22727273 C18.8181818,5.80467627 18.3501386,6.27272727 17.7727446,6.27272727 C17.1953506,6.27272727 16.7272727,5.80467627 16.7272727,5.22727273 C16.7272727,4.64986918 17.1953506,4.18181818 17.7727446,4.18181818 C18.3501386,4.18181818 18.8181818,4.64986918 18.8181818,5.22727273" id="Fill-6" fill="#FFFFFF"></path>
                </g>
            </g>
        </g>
    </g>
</svg>