<?xml version="1.0" encoding="UTF-8"?>
<svg width="31px" height="31px" viewBox="0 0 31 31" version="1.1" xmlns="http://www.w3.org/2000/svg" xmlns:xlink="http://www.w3.org/1999/xlink">
    <!-- Generator: Sketch 47 (45396) - http://www.bohemiancoding.com/sketch -->
    <title>instagram</title>
    <desc>Created with Sketch.</desc>
    <defs></defs>
    <g id="Symbols" stroke="none" stroke-width="1" fill="none" fill-rule="evenodd">
        <g id="Header" transform="translate(-1259.000000, -24.000000)">
            <g id="instagram">
                <g transform="translate(1259.000000, 24.000000)">
                    <circle id="Oval-3" fill="#000000" cx="15.5" cy="15.5" r="15.5"></circle>
                    <g id="Group-3" transform="translate(8.704243, 8.553140)" fill="#FFFFFF">
                        <path d="M6.87483565,0.00457315143 C5.00775623,0.00457315143 4.7736106,0.0124871645 4.04036365,0.045944337 C3.30859034,0.0793196403 2.80886135,0.195546474 2.3715439,0.365506726 C1.91949002,0.541170527 1.53606973,0.776244004 1.15387748,1.15843626 C0.771657935,1.5406558 0.536611747,1.9240488 0.360920657,2.37610268 C0.190960404,2.81342013 0.0747608608,3.31314912 0.0413582678,4.04492243 C0.0079010953,4.77819667 1.43719408e-05,5.01228772 1.43719408e-05,6.87939443 C1.43719408e-05,8.74650114 0.0079010953,8.98061948 0.0413582678,9.71389372 C0.0747608608,10.4456397 0.190960404,10.945396 0.360920657,11.3826862 C0.536611747,11.8347401 0.771657935,12.2181604 1.15387748,12.6003526 C1.53606973,12.9825721 1.91949002,13.2176183 2.3715439,13.3933367 C2.80886135,13.5632697 3.30859034,13.6794965 4.04036365,13.7128991 C4.7736106,13.746329 5.00775623,13.754243 6.87483565,13.754243 C8.74194236,13.754243 8.97603341,13.746329 9.70930765,13.7128991 C10.441081,13.6794965 10.94081,13.5632697 11.3781274,13.3933367 C11.8302086,13.2176183 12.2136016,12.9825721 12.5957938,12.6003526 C12.9780134,12.2181604 13.2130596,11.8347674 13.3887506,11.3826862 C13.5587109,10.945396 13.6749377,10.4456397 13.708313,9.71389372 C13.7417702,8.98061948 13.7496842,8.74650114 13.7496842,6.87939443 C13.7496842,5.01231501 13.7417702,4.77819667 13.708313,4.04492243 C13.6749377,3.31314912 13.5587109,2.81342013 13.3887506,2.37610268 C13.2130596,1.9240488 12.9780134,1.5406558 12.5957938,1.15843626 C12.2136016,0.776244004 11.8302086,0.541170527 11.3781274,0.365506726 C10.94081,0.195546474 10.441081,0.0793196403 9.70930765,0.045944337 C8.97603341,0.0124871645 8.74194236,0.00457315143 6.87483565,0.00457315143" id="Fill-1"></path>
                    </g>
                    <path d="M15.5812484,18.1394985 C14.3152421,18.1394985 13.2889136,17.1131638 13.2889136,15.84715 C13.2889136,14.5811362 14.3152421,13.5548288 15.5812484,13.5548288 C16.8472547,13.5548288 17.8735832,14.5811362 17.8735832,15.84715 C17.8735832,17.1131638 16.8472547,18.1394985 15.5812484,18.1394985 M15.5812621,12.3044644 C13.6246844,12.3044644 12.0385491,13.8905723 12.0385491,15.84715 C12.0385491,17.803755 13.6246844,19.3898629 15.5812621,19.3898629 C17.5378398,19.3898629 19.1239477,17.803755 19.1239477,15.84715 C19.1239477,13.8905723 17.5378398,12.3044644 15.5812621,12.3044644" id="Fill-4" fill="#000000"></path>
                    <path d="M19.957524,11.6792822 C19.957524,12.0245697 19.6776339,12.3044644 19.3323521,12.3044644 C18.9870702,12.3044644 18.7071595,12.0245697 18.7071595,11.6792822 C18.7071595,11.3339946 18.9870702,11.0540999 19.3323521,11.0540999 C19.6776339,11.0540999 19.957524,11.3339946 19.957524,11.6792822" id="Fill-6" fill="#000000"></path>
                </g>
            </g>
        </g>
    </g>
</svg>