<?xml version="1.0" encoding="UTF-8"?>
<svg width="38px" height="38px" viewBox="0 0 38 38" version="1.1" xmlns="http://www.w3.org/2000/svg" xmlns:xlink="http://www.w3.org/1999/xlink">
    <!-- Generator: Sketch 47 (45396) - http://www.bohemiancoding.com/sketch -->
    <title>instagram</title>
    <desc>Created with Sketch.</desc>
    <defs></defs>
    <g id="Symbols" stroke="none" stroke-width="1" fill="none" fill-rule="evenodd">
        <g id="Footer" transform="translate(-1263.000000, -25.000000)">
            <g id="instagram" transform="translate(1263.000000, 25.000000)">
                <circle id="Oval-3" fill="#FFFFFF" cx="19" cy="19" r="19"></circle>
                <g id="Group-3" transform="translate(11.000000, 11.000000)" fill="#070707">
                    <path d="M8.83907441,0.00587976613 C6.43854373,0.00587976613 6.13749935,0.0160549258 5.19475326,0.0590712904 C4.25390186,0.101982395 3.61139316,0.251416895 3.04912787,0.46993722 C2.46791573,0.695790677 1.97494679,0.998028006 1.48355676,1.48941804 C0.992131631,1.98084317 0.689929389,2.47377702 0.464040845,3.05498916 C0.24552052,3.61725445 0.0961211068,4.25976315 0.0531749157,5.20061455 C0.0101585511,6.14339572 1.84782096e-05,6.44436993 1.84782096e-05,8.8449357 C1.84782096e-05,11.2455015 0.0101585511,11.5465108 0.0531749157,12.4892919 C0.0961211068,13.4301082 0.24552052,14.072652 0.464040845,14.6348822 C0.689929389,15.2160944 0.992131631,15.7090633 1.48355676,16.2004533 C1.97494679,16.6918785 2.46791573,16.9940807 3.04912787,17.2200043 C3.61139316,17.4384896 4.25390186,17.5879241 5.19475326,17.6308703 C6.13749935,17.6738516 6.43854373,17.6840267 8.83907441,17.6840267 C11.2396402,17.6840267 11.5406144,17.6738516 12.4833956,17.6308703 C13.424247,17.5879241 14.0667557,17.4384896 14.6290209,17.2200043 C15.2102682,16.9940807 15.703202,16.6918785 16.1945921,16.2004533 C16.6860172,15.7090633 16.9882194,15.2161295 17.214108,14.6348822 C17.4326283,14.072652 17.5820628,13.4301082 17.6249739,12.4892919 C17.6679903,11.5465108 17.6781654,11.2455015 17.6781654,8.8449357 C17.6781654,6.44440501 17.6679903,6.14339572 17.6249739,5.20061455 C17.5820628,4.25976315 17.4326283,3.61725445 17.214108,3.05498916 C16.9882194,2.47377702 16.6860172,1.98084317 16.1945921,1.48941804 C15.703202,0.998028006 15.2102682,0.695790677 14.6290209,0.46993722 C14.0667557,0.251416895 13.424247,0.101982395 12.4833956,0.0590712904 C11.5406144,0.0160549258 11.2396402,0.00587976613 8.83907441,0.00587976613" id="Fill-1"></path>
                </g>
                <path d="M19.5,22.4117647 C17.8918962,22.4117647 16.5882353,21.1080961 16.5882353,19.4999827 C16.5882353,17.8918692 17.8918962,16.5882353 19.5,16.5882353 C21.1081038,16.5882353 22.4117647,17.8918692 22.4117647,19.4999827 C22.4117647,21.1080961 21.1081038,22.4117647 19.5,22.4117647 M19.5000174,15 C17.0147374,15 15,17.0147026 15,19.4999826 C15,21.9852974 17.0147374,24 19.5000174,24 C21.9852974,24 24,21.9852974 24,19.4999826 C24,17.0147026 21.9852974,15 19.5000174,15" id="Fill-4" fill="#FFFFFF"></path>
                <path d="M25,15 C25,15.552299 24.5523064,16 24.0000165,16 C23.4477266,16 23,15.552299 23,15 C23,14.447701 23.4477266,14 24.0000165,14 C24.5523064,14 25,14.447701 25,15" id="Fill-6" fill="#FFFFFF"></path>
            </g>
        </g>
    </g>
</svg>