<?xml version="1.0" encoding="UTF-8"?>
<svg width="645px" height="645px" viewBox="0 0 645 645" version="1.1" xmlns="http://www.w3.org/2000/svg" xmlns:xlink="http://www.w3.org/1999/xlink">
    <!-- Generator: Sketch 47 (45396) - http://www.bohemiancoding.com/sketch -->
    <title>lines</title>
    <desc>Created with Sketch.</desc>
    <defs>
        <rect id="path-1" x="0" y="0" width="645" height="645"></rect>
    </defs>
    <g id="Page-1" stroke="none" stroke-width="1" fill="none" fill-rule="evenodd">
        <g id="lines">
            <mask id="mask-2" fill="white">
                <use xlink:href="#path-1"></use>
            </mask>
            <g id="Mask"></g>
            <g mask="url(#mask-2)" stroke-linecap="square" id="Line" stroke="#000000" stroke-width="2">
                <g transform="translate(-514.030534, -338.000000)">
                    <path d="M947.312977,1349.3961 L1782.88649,500.867966"></path>
                    <path d="M943.374046,1345.3961 L1778.94756,496.867966"></path>
                    <path d="M940.419847,1340.3961 L1775.99336,491.867966"></path>
                    <path d="M935.496183,1337.3961 L1771.06969,488.867966"></path>
                    <path d="M902.015267,1363.3961 L1737.58878,514.867966"></path>
                    <path d="M894.137405,1363.3961 L1729.71091,514.867966"></path>
                    <path d="M886.259542,1363.3961 L1721.83305,514.867966"></path>
                    <path d="M862.625954,1379.3961 L1698.19946,530.867966"></path>
                    <path d="M854.748092,1379.3961 L1690.3216,530.867966"></path>
                    <path d="M846.870229,1379.3961 L1682.44374,530.867966"></path>
                    <path d="M854.748092,1363.3961 L1690.3216,514.867966"></path>
                    <path d="M846.870229,1363.3961 L1682.44374,514.867966"></path>
                    <path d="M838.992366,1363.3961 L1674.56588,514.867966"></path>
                    <path d="M815.358779,1379.3961 L1650.93229,530.867966"></path>
                    <path d="M807.480916,1379.3961 L1643.05443,530.867966"></path>
                    <path d="M799.603053,1379.3961 L1635.17656,530.867966"></path>
                    <path d="M817.328244,1352.3961 L1652.90175,503.867966"></path>
                    <path d="M809.450382,1352.3961 L1645.02389,503.867966"></path>
                    <path d="M801.572519,1352.3961 L1637.14603,503.867966"></path>
                    <path d="M777.938931,1368.3961 L1613.51244,519.867966"></path>
                    <path d="M770.061069,1368.3961 L1605.63458,519.867966"></path>
                    <path d="M762.183206,1368.3961 L1597.75672,519.867966"></path>
                    <path d="M770.061069,1352.3961 L1605.63458,503.867966"></path>
                    <path d="M762.183206,1352.3961 L1597.75672,503.867966"></path>
                    <path d="M754.305344,1352.3961 L1589.87885,503.867966"></path>
                    <path d="M730.671756,1368.3961 L1566.24527,519.867966"></path>
                    <path d="M722.793893,1368.3961 L1558.3674,519.867966"></path>
                    <path d="M714.916031,1368.3961 L1550.48954,519.867966"></path>
                    <path d="M744.458015,1329.3961 L1580.03152,480.867966"></path>
                    <path d="M736.580153,1329.3961 L1572.15366,480.867966"></path>
                    <path d="M728.70229,1329.3961 L1564.2758,480.867966"></path>
                    <path d="M736.580153,1313.3961 L1572.15366,464.867966"></path>
                    <path d="M728.70229,1313.3961 L1564.2758,464.867966"></path>
                    <path d="M720.824427,1313.3961 L1556.39794,464.867966"></path>
                    <path d="M697.19084,1329.3961 L1532.76435,480.867966"></path>
                    <path d="M689.312977,1329.3961 L1524.88649,480.867966"></path>
                    <path d="M681.435115,1329.3961 L1517.00862,480.867966"></path>
                    <path d="M694.236641,1308.3961 L1529.81015,459.867966"></path>
                    <path d="M690.29771,1304.3961 L1525.87122,455.867966"></path>
                    <path d="M687.343511,1299.3961 L1522.91702,450.867966"></path>
                    <path d="M682.419847,1296.3961 L1517.99336,447.867966"></path>
                    <path d="M648.938931,1322.3961 L1484.51244,473.867966"></path>
                    <path d="M641.061069,1322.3961 L1476.63458,473.867966"></path>
                    <path d="M633.183206,1322.3961 L1468.75672,473.867966"></path>
                    <path d="M609.549618,1338.3961 L1445.12313,489.867966"></path>
                    <path d="M601.671756,1338.3961 L1437.24527,489.867966"></path>
                    <path d="M593.793893,1338.3961 L1429.3674,489.867966"></path>
                    <path d="M601.671756,1322.3961 L1437.24527,473.867966"></path>
                    <path d="M593.793893,1322.3961 L1429.3674,473.867966"></path>
                    <path d="M585.916031,1322.3961 L1421.48954,473.867966"></path>
                    <path d="M562.282443,1338.3961 L1397.85595,489.867966"></path>
                    <path d="M554.40458,1338.3961 L1389.97809,489.867966"></path>
                    <path d="M546.526718,1338.3961 L1382.10023,489.867966"></path>
                    <path d="M564.251908,1311.3961 L1399.82542,462.867966"></path>
                    <path d="M556.374046,1311.3961 L1391.94756,462.867966"></path>
                    <path d="M548.496183,1311.3961 L1384.06969,462.867966"></path>
                    <path d="M524.862595,1327.3961 L1360.4361,478.867966"></path>
                    <path d="M516.984733,1327.3961 L1352.55824,478.867966"></path>
                    <path d="M509.10687,1327.3961 L1344.68038,478.867966"></path>
                    <path d="M516.984733,1311.3961 L1352.55824,462.867966"></path>
                    <path d="M509.10687,1311.3961 L1344.68038,462.867966"></path>
                    <path d="M501.229008,1311.3961 L1336.80252,462.867966"></path>
                    <path d="M477.59542,1327.3961 L1313.16893,478.867966"></path>
                    <path d="M469.717557,1327.3961 L1305.29107,478.867966"></path>
                    <path d="M461.839695,1327.3961 L1297.4132,478.867966"></path>
                    <path d="M530.770992,1273.3961 L1366.3445,424.867966"></path>
                    <path d="M522.89313,1273.3961 L1358.46664,424.867966"></path>
                    <path d="M515.015267,1273.3961 L1350.58878,424.867966"></path>
                    <path d="M491.381679,1289.3961 L1326.95519,440.867966"></path>
                    <path d="M483.503817,1289.3961 L1319.07733,440.867966"></path>
                    <path d="M475.625954,1289.3961 L1311.19946,440.867966"></path>
                    <path d="M483.503817,1273.3961 L1319.07733,424.867966"></path>
                    <path d="M475.625954,1273.3961 L1311.19946,424.867966"></path>
                    <path d="M467.748092,1273.3961 L1303.3216,424.867966"></path>
                    <path d="M444.114504,1289.3961 L1279.68801,440.867966"></path>
                    <path d="M436.236641,1289.3961 L1271.81015,440.867966"></path>
                    <path d="M428.358779,1289.3961 L1263.93229,440.867966"></path>
                    <path d="M533.725191,1174.3961 L1369.2987,325.867966"></path>
                    <path d="M529.78626,1170.3961 L1365.35977,321.867966"></path>
                    <path d="M526.832061,1165.3961 L1362.40557,316.867966"></path>
                    <path d="M521.908397,1162.3961 L1357.48191,313.867966"></path>
                    <path d="M488.427481,1188.3961 L1324.00099,339.867966"></path>
                    <path d="M480.549618,1188.3961 L1316.12313,339.867966"></path>
                    <path d="M472.671756,1188.3961 L1308.24527,339.867966"></path>
                    <path d="M449.038168,1204.3961 L1284.61168,355.867966"></path>
                    <path d="M441.160305,1204.3961 L1276.73381,355.867966"></path>
                    <path d="M433.282443,1204.3961 L1268.85595,355.867966"></path>
                    <path d="M441.160305,1188.3961 L1276.73381,339.867966"></path>
                    <path d="M433.282443,1188.3961 L1268.85595,339.867966"></path>
                    <path d="M425.40458,1188.3961 L1260.97809,339.867966"></path>
                    <path d="M401.770992,1204.3961 L1237.3445,355.867966"></path>
                    <path d="M393.89313,1204.3961 L1229.46664,355.867966"></path>
                    <path d="M386.015267,1204.3961 L1221.58878,355.867966"></path>
                    <path d="M403.740458,1177.3961 L1239.31397,328.867966"></path>
                    <path d="M395.862595,1177.3961 L1231.4361,328.867966"></path>
                    <path d="M387.984733,1177.3961 L1223.55824,328.867966"></path>
                    <path d="M364.351145,1193.3961 L1199.92465,344.867966"></path>
                    <path d="M356.473282,1193.3961 L1192.04679,344.867966"></path>
                    <path d="M348.59542,1193.3961 L1184.16893,344.867966"></path>
                    <path d="M356.473282,1177.3961 L1192.04679,328.867966"></path>
                    <path d="M348.59542,1177.3961 L1184.16893,328.867966"></path>
                    <path d="M340.717557,1177.3961 L1176.29107,328.867966"></path>
                    <path d="M317.083969,1193.3961 L1152.65748,344.867966"></path>
                    <path d="M309.206107,1193.3961 L1144.77962,344.867966"></path>
                    <path d="M301.328244,1193.3961 L1136.90175,344.867966"></path>
                    <path d="M370.259542,1139.3961 L1205.83305,290.867966"></path>
                    <path d="M362.381679,1139.3961 L1197.95519,290.867966"></path>
                    <path d="M354.503817,1139.3961 L1190.07733,290.867966"></path>
                    <path d="M330.870229,1155.3961 L1166.44374,306.867966"></path>
                    <path d="M322.992366,1155.3961 L1158.56588,306.867966"></path>
                    <path d="M315.114504,1155.3961 L1150.68801,306.867966"></path>
                    <path d="M322.992366,1139.3961 L1158.56588,290.867966"></path>
                    <path d="M315.114504,1139.3961 L1150.68801,290.867966"></path>
                    <path d="M307.236641,1139.3961 L1142.81015,290.867966"></path>
                    <path d="M283.603053,1155.3961 L1119.17656,306.867966"></path>
                    <path d="M275.725191,1155.3961 L1111.2987,306.867966"></path>
                    <path d="M267.847328,1155.3961 L1103.42084,306.867966"></path>
                    <path d="M485.473282,925.396103 L1321.04679,76.8679656"></path>
                    <path d="M481.534351,921.396103 L1317.10786,72.8679656"></path>
                    <path d="M478.580153,916.396103 L1314.15366,67.8679656"></path>
                    <path d="M473.656489,913.396103 L1309.23,64.8679656"></path>
                    <path d="M440.175573,939.396103 L1275.74908,90.8679656"></path>
                    <path d="M432.29771,939.396103 L1267.87122,90.8679656"></path>
                    <path d="M424.419847,939.396103 L1259.99336,90.8679656"></path>
                    <path d="M400.78626,955.396103 L1236.35977,106.867966"></path>
                    <path d="M392.908397,955.396103 L1228.48191,106.867966"></path>
                    <path d="M385.030534,955.396103 L1220.60404,106.867966"></path>
                    <path d="M392.908397,939.396103 L1228.48191,90.8679656"></path>
                    <path d="M385.030534,939.396103 L1220.60404,90.8679656"></path>
                    <path d="M377.152672,939.396103 L1212.72618,90.8679656"></path>
                    <path d="M353.519084,955.396103 L1189.09259,106.867966"></path>
                    <path d="M345.641221,955.396103 L1181.21473,106.867966"></path>
                    <path d="M337.763359,955.396103 L1173.33687,106.867966"></path>
                    <path d="M355.48855,928.396103 L1191.06206,79.8679656"></path>
                    <path d="M347.610687,928.396103 L1183.1842,79.8679656"></path>
                    <path d="M339.732824,928.396103 L1175.30633,79.8679656"></path>
                    <path d="M316.099237,944.396103 L1151.67275,95.8679656"></path>
                    <path d="M308.221374,944.396103 L1143.79488,95.8679656"></path>
                    <path d="M300.343511,944.396103 L1135.91702,95.8679656"></path>
                    <path d="M308.221374,928.396103 L1143.79488,79.8679656"></path>
                    <path d="M300.343511,928.396103 L1135.91702,79.8679656"></path>
                    <path d="M292.465649,928.396103 L1128.03916,79.8679656"></path>
                    <path d="M268.832061,944.396103 L1104.40557,95.8679656"></path>
                    <path d="M260.954198,944.396103 L1096.52771,95.8679656"></path>
                    <path d="M253.076336,944.396103 L1088.64985,95.8679656"></path>
                    <path d="M282.618321,905.396103 L1118.19183,56.8679656"></path>
                    <path d="M274.740458,905.396103 L1110.31397,56.8679656"></path>
                    <path d="M266.862595,905.396103 L1102.4361,56.8679656"></path>
                    <path d="M274.740458,889.396103 L1110.31397,40.8679656"></path>
                    <path d="M266.862595,889.396103 L1102.4361,40.8679656"></path>
                    <path d="M258.984733,889.396103 L1094.55824,40.8679656"></path>
                    <path d="M235.351145,905.396103 L1070.92465,56.8679656"></path>
                    <path d="M227.473282,905.396103 L1063.04679,56.8679656"></path>
                    <path d="M219.59542,905.396103 L1055.16893,56.8679656"></path>
                    <path d="M232.396947,884.396103 L1067.97046,35.8679656"></path>
                    <path d="M228.458015,880.396103 L1064.03152,31.8679656"></path>
                    <path d="M225.503817,875.396103 L1061.07733,26.8679656"></path>
                    <path d="M220.580153,872.396103 L1056.15366,23.8679656"></path>
                    <path d="M187.099237,898.396103 L1022.67275,49.8679656"></path>
                    <path d="M179.221374,898.396103 L1014.79488,49.8679656"></path>
                    <path d="M171.343511,898.396103 L1006.91702,49.8679656"></path>
                    <path d="M147.709924,914.396103 L983.283433,65.8679656"></path>
                    <path d="M139.832061,914.396103 L975.40557,65.8679656"></path>
                    <path d="M131.954198,914.396103 L967.527708,65.8679656"></path>
                    <path d="M139.832061,898.396103 L975.40557,49.8679656"></path>
                    <path d="M131.954198,898.396103 L967.527708,49.8679656"></path>
                    <path d="M124.076336,898.396103 L959.649845,49.8679656"></path>
                    <path d="M100.442748,914.396103 L936.016257,65.8679656"></path>
                    <path d="M92.5648855,914.396103 L928.138395,65.8679656"></path>
                    <path d="M84.6870229,914.396103 L920.260532,65.8679656"></path>
                    <path d="M102.412214,887.396103 L937.985723,38.8679656"></path>
                    <path d="M94.5343511,887.396103 L930.107861,38.8679656"></path>
                    <path d="M86.6564885,887.396103 L922.229998,38.8679656"></path>
                    <path d="M63.0229008,903.396103 L898.59641,54.8679656"></path>
                    <path d="M55.1450382,903.396103 L890.718548,54.8679656"></path>
                    <path d="M47.2671756,903.396103 L882.840685,54.8679656"></path>
                    <path d="M55.1450382,887.396103 L890.718548,38.8679656"></path>
                    <path d="M47.2671756,887.396103 L882.840685,38.8679656"></path>
                    <path d="M39.389313,887.396103 L874.962822,38.8679656"></path>
                    <path d="M15.7557252,903.396103 L851.329235,54.8679656"></path>
                    <path d="M7.8778626,903.396103 L843.451372,54.8679656"></path>
                    <path d="M0,903.396103 L835.573509,54.8679656"></path>
                    <path d="M68.9312977,849.396103 L904.504807,0.867965644"></path>
                    <path d="M61.0534351,849.396103 L896.626944,0.867965644"></path>
                    <path d="M53.1755725,849.396103 L888.749082,0.867965644"></path>
                    <path d="M29.5419847,865.396103 L865.115494,16.8679656"></path>
                    <path d="M21.6641221,865.396103 L857.237632,16.8679656"></path>
                    <path d="M13.7862595,865.396103 L849.359769,16.8679656"></path>
                    <path d="M21.6641221,849.396103 L857.237632,0.867965644"></path>
                    <path d="M13.7862595,849.396103 L849.359769,0.867965644"></path>
                    <path d="M5.90839695,849.396103 L841.481906,0.867965644"></path>
                </g>
            </g>
        </g>
    </g>
</svg>