<?xml version="1.0" encoding="UTF-8"?>
<svg width="655px" height="761px" viewBox="0 0 655 761" version="1.1" xmlns="http://www.w3.org/2000/svg" xmlns:xlink="http://www.w3.org/1999/xlink">
    <!-- Generator: Sketch 47 (45396) - http://www.bohemiancoding.com/sketch -->
    <title>lines</title>
    <desc>Created with Sketch.</desc>
    <defs>
        <rect id="path-1" x="0" y="0" width="655" height="761"></rect>
    </defs>
    <g id="jeanius_desktop" stroke="none" stroke-width="1" fill="none" fill-rule="evenodd">
        <g id="homepage" transform="translate(-563.000000, -1219.000000)">
            <g id="section-post1" transform="translate(234.000000, 1182.000000)">
                <g id="lines" transform="translate(329.000000, 37.000000)">
                    <mask id="mask-2" fill="white">
                        <use xlink:href="#path-1"></use>
                    </mask>
                    <g id="Mask"></g>
                    <g mask="url(#mask-2)" stroke-linecap="square" id="Line" stroke="#000000" stroke-width="2">
                        <g transform="translate(-522.000000, -378.000000)">
                            <path d="M962,1349.3961 L1810.52814,500.867966"></path>
                            <path d="M958,1345.3961 L1806.52814,496.867966"></path>
                            <path d="M955,1340.3961 L1803.52814,491.867966"></path>
                            <path d="M950,1337.3961 L1798.52814,488.867966"></path>
                            <path d="M916,1363.3961 L1764.52814,514.867966"></path>
                            <path d="M908,1363.3961 L1756.52814,514.867966"></path>
                            <path d="M900,1363.3961 L1748.52814,514.867966"></path>
                            <path d="M876,1379.3961 L1724.52814,530.867966"></path>
                            <path d="M868,1379.3961 L1716.52814,530.867966"></path>
                            <path d="M860,1379.3961 L1708.52814,530.867966"></path>
                            <path d="M868,1363.3961 L1716.52814,514.867966"></path>
                            <path d="M860,1363.3961 L1708.52814,514.867966"></path>
                            <path d="M852,1363.3961 L1700.52814,514.867966"></path>
                            <path d="M828,1379.3961 L1676.52814,530.867966"></path>
                            <path d="M820,1379.3961 L1668.52814,530.867966"></path>
                            <path d="M812,1379.3961 L1660.52814,530.867966"></path>
                            <path d="M830,1352.3961 L1678.52814,503.867966"></path>
                            <path d="M822,1352.3961 L1670.52814,503.867966"></path>
                            <path d="M814,1352.3961 L1662.52814,503.867966"></path>
                            <path d="M790,1368.3961 L1638.52814,519.867966"></path>
                            <path d="M782,1368.3961 L1630.52814,519.867966"></path>
                            <path d="M774,1368.3961 L1622.52814,519.867966"></path>
                            <path d="M782,1352.3961 L1630.52814,503.867966"></path>
                            <path d="M774,1352.3961 L1622.52814,503.867966"></path>
                            <path d="M766,1352.3961 L1614.52814,503.867966"></path>
                            <path d="M742,1368.3961 L1590.52814,519.867966"></path>
                            <path d="M734,1368.3961 L1582.52814,519.867966"></path>
                            <path d="M726,1368.3961 L1574.52814,519.867966"></path>
                            <path d="M756,1329.3961 L1604.52814,480.867966"></path>
                            <path d="M748,1329.3961 L1596.52814,480.867966"></path>
                            <path d="M740,1329.3961 L1588.52814,480.867966"></path>
                            <path d="M748,1313.3961 L1596.52814,464.867966"></path>
                            <path d="M740,1313.3961 L1588.52814,464.867966"></path>
                            <path d="M732,1313.3961 L1580.52814,464.867966"></path>
                            <path d="M708,1329.3961 L1556.52814,480.867966"></path>
                            <path d="M700,1329.3961 L1548.52814,480.867966"></path>
                            <path d="M692,1329.3961 L1540.52814,480.867966"></path>
                            <path d="M705,1308.3961 L1553.52814,459.867966"></path>
                            <path d="M701,1304.3961 L1549.52814,455.867966"></path>
                            <path d="M698,1299.3961 L1546.52814,450.867966"></path>
                            <path d="M693,1296.3961 L1541.52814,447.867966"></path>
                            <path d="M659,1322.3961 L1507.52814,473.867966"></path>
                            <path d="M651,1322.3961 L1499.52814,473.867966"></path>
                            <path d="M643,1322.3961 L1491.52814,473.867966"></path>
                            <path d="M619,1338.3961 L1467.52814,489.867966"></path>
                            <path d="M611,1338.3961 L1459.52814,489.867966"></path>
                            <path d="M603,1338.3961 L1451.52814,489.867966"></path>
                            <path d="M611,1322.3961 L1459.52814,473.867966"></path>
                            <path d="M603,1322.3961 L1451.52814,473.867966"></path>
                            <path d="M595,1322.3961 L1443.52814,473.867966"></path>
                            <path d="M571,1338.3961 L1419.52814,489.867966"></path>
                            <path d="M563,1338.3961 L1411.52814,489.867966"></path>
                            <path d="M555,1338.3961 L1403.52814,489.867966"></path>
                            <path d="M573,1311.3961 L1421.52814,462.867966"></path>
                            <path d="M565,1311.3961 L1413.52814,462.867966"></path>
                            <path d="M557,1311.3961 L1405.52814,462.867966"></path>
                            <path d="M533,1327.3961 L1381.52814,478.867966"></path>
                            <path d="M525,1327.3961 L1373.52814,478.867966"></path>
                            <path d="M517,1327.3961 L1365.52814,478.867966"></path>
                            <path d="M525,1311.3961 L1373.52814,462.867966"></path>
                            <path d="M517,1311.3961 L1365.52814,462.867966"></path>
                            <path d="M509,1311.3961 L1357.52814,462.867966"></path>
                            <path d="M485,1327.3961 L1333.52814,478.867966"></path>
                            <path d="M477,1327.3961 L1325.52814,478.867966"></path>
                            <path d="M469,1327.3961 L1317.52814,478.867966"></path>
                            <path d="M539,1273.3961 L1387.52814,424.867966"></path>
                            <path d="M531,1273.3961 L1379.52814,424.867966"></path>
                            <path d="M523,1273.3961 L1371.52814,424.867966"></path>
                            <path d="M499,1289.3961 L1347.52814,440.867966"></path>
                            <path d="M491,1289.3961 L1339.52814,440.867966"></path>
                            <path d="M483,1289.3961 L1331.52814,440.867966"></path>
                            <path d="M491,1273.3961 L1339.52814,424.867966"></path>
                            <path d="M483,1273.3961 L1331.52814,424.867966"></path>
                            <path d="M475,1273.3961 L1323.52814,424.867966"></path>
                            <path d="M451,1289.3961 L1299.52814,440.867966"></path>
                            <path d="M443,1289.3961 L1291.52814,440.867966"></path>
                            <path d="M435,1289.3961 L1283.52814,440.867966"></path>
                            <path d="M542,1174.3961 L1390.52814,325.867966"></path>
                            <path d="M538,1170.3961 L1386.52814,321.867966"></path>
                            <path d="M535,1165.3961 L1383.52814,316.867966"></path>
                            <path d="M530,1162.3961 L1378.52814,313.867966"></path>
                            <path d="M496,1188.3961 L1344.52814,339.867966"></path>
                            <path d="M488,1188.3961 L1336.52814,339.867966"></path>
                            <path d="M480,1188.3961 L1328.52814,339.867966"></path>
                            <path d="M456,1204.3961 L1304.52814,355.867966"></path>
                            <path d="M448,1204.3961 L1296.52814,355.867966"></path>
                            <path d="M440,1204.3961 L1288.52814,355.867966"></path>
                            <path d="M448,1188.3961 L1296.52814,339.867966"></path>
                            <path d="M440,1188.3961 L1288.52814,339.867966"></path>
                            <path d="M432,1188.3961 L1280.52814,339.867966"></path>
                            <path d="M408,1204.3961 L1256.52814,355.867966"></path>
                            <path d="M400,1204.3961 L1248.52814,355.867966"></path>
                            <path d="M392,1204.3961 L1240.52814,355.867966"></path>
                            <path d="M410,1177.3961 L1258.52814,328.867966"></path>
                            <path d="M402,1177.3961 L1250.52814,328.867966"></path>
                            <path d="M394,1177.3961 L1242.52814,328.867966"></path>
                            <path d="M370,1193.3961 L1218.52814,344.867966"></path>
                            <path d="M362,1193.3961 L1210.52814,344.867966"></path>
                            <path d="M354,1193.3961 L1202.52814,344.867966"></path>
                            <path d="M362,1177.3961 L1210.52814,328.867966"></path>
                            <path d="M354,1177.3961 L1202.52814,328.867966"></path>
                            <path d="M346,1177.3961 L1194.52814,328.867966"></path>
                            <path d="M322,1193.3961 L1170.52814,344.867966"></path>
                            <path d="M314,1193.3961 L1162.52814,344.867966"></path>
                            <path d="M306,1193.3961 L1154.52814,344.867966"></path>
                            <path d="M376,1139.3961 L1224.52814,290.867966"></path>
                            <path d="M368,1139.3961 L1216.52814,290.867966"></path>
                            <path d="M360,1139.3961 L1208.52814,290.867966"></path>
                            <path d="M336,1155.3961 L1184.52814,306.867966"></path>
                            <path d="M328,1155.3961 L1176.52814,306.867966"></path>
                            <path d="M320,1155.3961 L1168.52814,306.867966"></path>
                            <path d="M328,1139.3961 L1176.52814,290.867966"></path>
                            <path d="M320,1139.3961 L1168.52814,290.867966"></path>
                            <path d="M312,1139.3961 L1160.52814,290.867966"></path>
                            <path d="M288,1155.3961 L1136.52814,306.867966"></path>
                            <path d="M280,1155.3961 L1128.52814,306.867966"></path>
                            <path d="M272,1155.3961 L1120.52814,306.867966"></path>
                            <path d="M493,925.396103 L1341.52814,76.8679656"></path>
                            <path d="M489,921.396103 L1337.52814,72.8679656"></path>
                            <path d="M486,916.396103 L1334.52814,67.8679656"></path>
                            <path d="M481,913.396103 L1329.52814,64.8679656"></path>
                            <path d="M447,939.396103 L1295.52814,90.8679656"></path>
                            <path d="M439,939.396103 L1287.52814,90.8679656"></path>
                            <path d="M431,939.396103 L1279.52814,90.8679656"></path>
                            <path d="M407,955.396103 L1255.52814,106.867966"></path>
                            <path d="M399,955.396103 L1247.52814,106.867966"></path>
                            <path d="M391,955.396103 L1239.52814,106.867966"></path>
                            <path d="M399,939.396103 L1247.52814,90.8679656"></path>
                            <path d="M391,939.396103 L1239.52814,90.8679656"></path>
                            <path d="M383,939.396103 L1231.52814,90.8679656"></path>
                            <path d="M359,955.396103 L1207.52814,106.867966"></path>
                            <path d="M351,955.396103 L1199.52814,106.867966"></path>
                            <path d="M343,955.396103 L1191.52814,106.867966"></path>
                            <path d="M361,928.396103 L1209.52814,79.8679656"></path>
                            <path d="M353,928.396103 L1201.52814,79.8679656"></path>
                            <path d="M345,928.396103 L1193.52814,79.8679656"></path>
                            <path d="M321,944.396103 L1169.52814,95.8679656"></path>
                            <path d="M313,944.396103 L1161.52814,95.8679656"></path>
                            <path d="M305,944.396103 L1153.52814,95.8679656"></path>
                            <path d="M313,928.396103 L1161.52814,79.8679656"></path>
                            <path d="M305,928.396103 L1153.52814,79.8679656"></path>
                            <path d="M297,928.396103 L1145.52814,79.8679656"></path>
                            <path d="M273,944.396103 L1121.52814,95.8679656"></path>
                            <path d="M265,944.396103 L1113.52814,95.8679656"></path>
                            <path d="M257,944.396103 L1105.52814,95.8679656"></path>
                            <path d="M287,905.396103 L1135.52814,56.8679656"></path>
                            <path d="M279,905.396103 L1127.52814,56.8679656"></path>
                            <path d="M271,905.396103 L1119.52814,56.8679656"></path>
                            <path d="M279,889.396103 L1127.52814,40.8679656"></path>
                            <path d="M271,889.396103 L1119.52814,40.8679656"></path>
                            <path d="M263,889.396103 L1111.52814,40.8679656"></path>
                            <path d="M239,905.396103 L1087.52814,56.8679656"></path>
                            <path d="M231,905.396103 L1079.52814,56.8679656"></path>
                            <path d="M223,905.396103 L1071.52814,56.8679656"></path>
                            <path d="M236,884.396103 L1084.52814,35.8679656"></path>
                            <path d="M232,880.396103 L1080.52814,31.8679656"></path>
                            <path d="M229,875.396103 L1077.52814,26.8679656"></path>
                            <path d="M224,872.396103 L1072.52814,23.8679656"></path>
                            <path d="M190,898.396103 L1038.52814,49.8679656"></path>
                            <path d="M182,898.396103 L1030.52814,49.8679656"></path>
                            <path d="M174,898.396103 L1022.52814,49.8679656"></path>
                            <path d="M150,914.396103 L998.528137,65.8679656"></path>
                            <path d="M142,914.396103 L990.528137,65.8679656"></path>
                            <path d="M134,914.396103 L982.528137,65.8679656"></path>
                            <path d="M142,898.396103 L990.528137,49.8679656"></path>
                            <path d="M134,898.396103 L982.528137,49.8679656"></path>
                            <path d="M126,898.396103 L974.528137,49.8679656"></path>
                            <path d="M102,914.396103 L950.528137,65.8679656"></path>
                            <path d="M94,914.396103 L942.528137,65.8679656"></path>
                            <path d="M86,914.396103 L934.528137,65.8679656"></path>
                            <path d="M104,887.396103 L952.528137,38.8679656"></path>
                            <path d="M96,887.396103 L944.528137,38.8679656"></path>
                            <path d="M88,887.396103 L936.528137,38.8679656"></path>
                            <path d="M64,903.396103 L912.528137,54.8679656"></path>
                            <path d="M56,903.396103 L904.528137,54.8679656"></path>
                            <path d="M48,903.396103 L896.528137,54.8679656"></path>
                            <path d="M56,887.396103 L904.528137,38.8679656"></path>
                            <path d="M48,887.396103 L896.528137,38.8679656"></path>
                            <path d="M40,887.396103 L888.528137,38.8679656"></path>
                            <path d="M16,903.396103 L864.528137,54.8679656"></path>
                            <path d="M8,903.396103 L856.528137,54.8679656"></path>
                            <path d="M0,903.396103 L848.528137,54.8679656"></path>
                            <path d="M70,849.396103 L918.528137,0.867965644"></path>
                            <path d="M62,849.396103 L910.528137,0.867965644"></path>
                            <path d="M54,849.396103 L902.528137,0.867965644"></path>
                            <path d="M30,865.396103 L878.528137,16.8679656"></path>
                            <path d="M22,865.396103 L870.528137,16.8679656"></path>
                            <path d="M14,865.396103 L862.528137,16.8679656"></path>
                            <path d="M22,849.396103 L870.528137,0.867965644"></path>
                            <path d="M14,849.396103 L862.528137,0.867965644"></path>
                            <path d="M6,849.396103 L854.528137,0.867965644"></path>
                        </g>
                    </g>
                </g>
            </g>
        </g>
    </g>
</svg>