<?xml version="1.0" encoding="UTF-8"?>
<svg width="19px" height="24px" viewBox="0 0 19 24" version="1.1" xmlns="http://www.w3.org/2000/svg" xmlns:xlink="http://www.w3.org/1999/xlink">
    <!-- Generator: Sketch 47 (45396) - http://www.bohemiancoding.com/sketch -->
    <title>pinterest</title>
    <desc>Created with Sketch.</desc>
    <defs></defs>
    <g id="jeanius_desktop" stroke="none" stroke-width="1" fill="none" fill-rule="evenodd">
        <g id="post" transform="translate(-752.000000, -3165.000000)" fill-rule="nonzero" fill="#000000">
            <g id="section-share" transform="translate(434.000000, 3131.000000)">
                <g id="pinterest" transform="translate(318.000000, 34.000000)">
                    <path d="M7.81016916,15.8734034 C7.16882622,19.1774657 6.38558678,22.3452088 4.06542003,24 C3.34934331,19.0058666 5.11731037,15.2554067 5.93816094,11.2735879 C4.53873405,8.95856025 6.10643408,4.29874511 9.05866309,5.44713898 C12.6910673,6.85953145 5.91276122,14.0546931 10.4629745,14.9537283 C15.2139434,15.8916433 17.1536028,6.85329148 14.2074794,3.91378716 C9.95107249,-0.330350196 1.81705634,3.81706768 2.81741455,9.89359526 C3.06066572,11.3794273 4.62250428,11.8299049 3.44141729,13.880214 C0.717297306,13.2866972 -0.0959821953,11.1754284 0.0087916503,8.36024344 C0.177309024,3.75298802 4.221726,0.52692523 8.27835438,0.0807676104 C13.4086094,-0.483709378 18.223566,1.93139774 18.8883548,6.67377244 C19.6371581,12.0264639 16.5730726,17.8238729 11.0869773,17.4067552 C9.60011674,17.2932358 8.97562555,16.5693996 7.81016916,15.8734034 Z" id="Shape"></path>
                </g>
            </g>
        </g>
    </g>
</svg>