<?xml version="1.0" encoding="UTF-8"?>
<svg width="31px" height="31px" viewBox="0 0 31 31" version="1.1" xmlns="http://www.w3.org/2000/svg" xmlns:xlink="http://www.w3.org/1999/xlink">
    <!-- Generator: Sketch 47 (45396) - http://www.bohemiancoding.com/sketch -->
    <title>pinterest</title>
    <desc>Created with Sketch.</desc>
    <defs></defs>
    <g id="Symbols" stroke="none" stroke-width="1" fill="none" fill-rule="evenodd">
        <g id="Header" transform="translate(-1300.000000, -24.000000)">
            <g id="pinterest">
                <g transform="translate(1300.000000, 24.000000)">
                    <circle id="Oval-3" fill="#000000" cx="15.5" cy="15.5" r="15.5"></circle>
                    <path d="M14.9327384,18.44636 C14.5276797,20.5331362 14.0330022,22.5338161 12.5676337,23.5789474 C12.1153747,20.4247579 13.2319855,18.0560463 13.7504174,15.5412134 C12.8665689,14.0790907 13.8566952,11.1360495 15.7212609,11.8613509 C18.0154109,12.7533883 13.7343755,17.2977009 16.6081944,17.8655126 C19.6088063,18.45788 20.8338544,12.7494472 18.9731449,10.8929182 C16.2848879,8.2124104 11.1476145,10.8318322 11.7794197,14.6696391 C11.933052,15.6080594 12.9194764,15.8925715 12.1735267,17.1875036 C10.4530299,16.8126508 9.93937967,15.4792179 10.0055526,13.7012064 C10.1119846,10.7913609 12.6663533,8.75384751 15.2284343,8.47206375 C18.4685954,8.11555197 21.5096206,9.64088278 21.9294872,12.6360668 C22.4024156,16.016714 20.4672038,19.6782355 17.0023014,19.4147927 C16.0632316,19.3430963 15.6688161,18.8859366 14.9327384,18.44636 Z" id="Shape" fill="#FFFFFF" fill-rule="nonzero"></path>
                </g>
            </g>
        </g>
    </g>
</svg>