<?xml version="1.0" encoding="UTF-8"?>
<svg width="38px" height="38px" viewBox="0 0 38 38" version="1.1" xmlns="http://www.w3.org/2000/svg" xmlns:xlink="http://www.w3.org/1999/xlink">
    <!-- Generator: Sketch 47 (45396) - http://www.bohemiancoding.com/sketch -->
    <title>pinterest</title>
    <desc>Created with Sketch.</desc>
    <defs></defs>
    <g id="Symbols" stroke="none" stroke-width="1" fill="none" fill-rule="evenodd">
        <g id="Footer" transform="translate(-1314.000000, -25.000000)">
            <g id="pinterest" transform="translate(1314.000000, 25.000000)">
                <circle id="Oval-3" fill="#FFFFFF" cx="19" cy="19" r="19"></circle>
                <path d="M18.165923,22.5664443 C17.6595997,25.1821604 17.0412527,27.689957 15.2095421,29 C14.6442184,25.0463111 16.0399819,22.0771969 16.6880218,18.9249238 C15.5832111,17.0921935 16.820869,13.4031732 19.1515761,14.3123184 C22.0192637,15.4304624 16.6679694,21.126632 20.2602431,21.8383682 C24.0110079,22.5808842 25.542318,15.4255224 23.2164311,13.0984148 C19.8561099,9.73847276 13.4345182,13.0218452 14.2242746,17.8324296 C14.416315,19.0087133 15.6493455,19.3653414 14.7169084,20.9885027 C12.5662873,20.5186352 11.9242246,18.8472142 12.0069408,16.6185261 C12.1399808,12.9711155 15.3329416,10.4171491 18.5355429,10.063941 C22.5857443,9.61706341 26.3870258,11.5290232 26.911859,15.2834032 C27.5030195,19.5209506 25.0840047,24.1105661 20.7528768,23.7803478 C19.5790395,23.6904783 19.0860202,23.1174414 18.165923,22.5664443 Z" id="Shape" fill="#000000" fill-rule="nonzero"></path>
            </g>
        </g>
    </g>
</svg>