<?xml version="1.0" encoding="UTF-8"?>
<svg width="38px" height="38px" viewBox="0 0 38 38" version="1.1" xmlns="http://www.w3.org/2000/svg" xmlns:xlink="http://www.w3.org/1999/xlink">
    <!-- Generator: Sketch 47 (45396) - http://www.bohemiancoding.com/sketch -->
    <title>twitter</title>
    <desc>Created with Sketch.</desc>
    <defs>
        <polygon id="path-1" points="0 6.33333333 31 6.33333333 31 33.7777778 0 33.7777778"></polygon>
    </defs>
    <g id="Symbols" stroke="none" stroke-width="1" fill="none" fill-rule="evenodd">
        <g id="Footer" transform="translate(-1212.000000, -25.000000)">
            <g id="twitter" transform="translate(1212.000000, 25.000000)">
                <circle id="Oval-3" fill="#FFFFFF" cx="19" cy="19" r="19"></circle>
                <mask id="mask-2" fill="white">
                    <use xlink:href="#path-1"></use>
                </mask>
                <g id="Clip-2"></g>
                <path d="M17.0260104,26.3888889 C23.0636255,26.3888889 26.3673469,21.1080618 26.3673469,16.5362388 C26.3673469,16.3876039 26.3673469,16.2390365 26.3609444,16.0904692 C27.0012005,15.6042487 27.5582233,14.98972 28,14.2941546 C27.4109644,14.5710302 26.7771108,14.7533629 26.1112445,14.8411527 C26.789916,14.4157098 27.3085234,13.733718 27.5582233,12.9233506 C26.9243697,13.3217137 26.220088,13.6053423 25.4709884,13.7606627 C24.8691477,13.0853565 24.017607,12.6666667 23.0764306,12.6666667 C21.2645058,12.6666667 19.7919168,14.219871 19.7919168,16.1310551 C19.7919168,16.4011775 19.8239296,16.6644794 19.8751501,16.9210958 C17.1476591,16.7792815 14.727491,15.3949038 13.1076431,13.3014545 C12.8259304,13.8146872 12.6658663,14.4090242 12.6658663,15.0437445 C12.6658663,16.2457896 13.2484994,17.3060203 14.1256503,17.9273021 C13.5878351,17.9070429 13.0820328,17.75179 12.6402561,17.4951061 L12.6402561,17.5423775 C12.6402561,19.2171369 13.7735094,20.6218414 15.2717087,20.9392353 C14.9963986,21.0202045 14.7082833,21.0607904 14.4073629,21.0607904 C14.1960784,21.0607904 13.9911965,21.0405312 13.7927171,20.9999453 C14.2088836,22.3776375 15.4253701,23.3770232 16.8595438,23.404103 C15.7326931,24.3360255 14.3177271,24.8897766 12.7811124,24.8897766 C12.5186074,24.8897766 12.2561024,24.8762705 12,24.8425052 C13.4469788,25.8148786 15.1756703,26.3888889 17.0260104,26.3888889" id="Fill-1" fill="#000000" mask="url(#mask-2)"></path>
            </g>
        </g>
    </g>
</svg>