<?xml version="1.0" encoding="UTF-8"?>
<svg width="31px" height="31px" viewBox="0 0 31 31" version="1.1" xmlns="http://www.w3.org/2000/svg" xmlns:xlink="http://www.w3.org/1999/xlink">
    <!-- Generator: Sketch 47 (45396) - http://www.bohemiancoding.com/sketch -->
    <title>twitter</title>
    <desc>Created with Sketch.</desc>
    <defs>
        <polygon id="path-1" points="9 5 25 5 25 27 9 27"></polygon>
    </defs>
    <g id="Symbols" stroke="none" stroke-width="1" fill="none" fill-rule="evenodd">
        <g id="Header" transform="translate(-1218.000000, -24.000000)">
            <g id="twitter">
                <g transform="translate(1218.000000, 24.000000)">
                    <circle id="Oval-3" fill="#000000" cx="15.5" cy="15.5" r="15.5"></circle>
                    <mask id="mask-2" fill="white">
                        <use xlink:href="#path-1"></use>
                    </mask>
                    <g id="Clip-2"></g>
                    <path d="M13.4548729,21.7777778 C18.8063953,21.7777778 21.7346939,17.3307655 21.7346939,13.4808093 C21.7346939,13.355643 21.7346939,13.2305337 21.7290189,13.1054243 C22.2965186,12.6959755 22.7902434,12.1784777 23.1818182,11.5927384 C22.6597184,11.8258968 22.0978937,11.9794401 21.507694,12.0533683 C22.1092437,11.6951006 22.5689185,11.1207918 22.7902434,10.4383771 C22.2284186,10.7738408 21.6041689,11.0126859 20.9401943,11.1434821 C20.4067445,10.5748031 19.6519699,10.2222222 18.8177453,10.2222222 C17.2117211,10.2222222 15.9064717,11.5301837 15.9064717,13.1396019 C15.9064717,13.3670735 15.9348467,13.5888014 15.9802466,13.8048994 C13.5626978,13.6854768 11.4175488,12.519685 9.98177453,10.7567804 C9.73207465,11.1889764 9.59019972,11.6894707 9.59019972,12.223972 C9.59019972,13.2362205 10.1066245,14.1290464 10.8840991,14.652231 C10.4073993,14.6351706 9.95907454,14.5044313 9.56749973,14.2882765 L9.56749973,14.328084 C9.56749973,15.7384077 10.5719742,16.9213167 11.8999236,17.1885958 C11.6558987,17.2567804 11.4005238,17.290958 11.133799,17.290958 C10.9465241,17.290958 10.7649242,17.2738976 10.5889992,17.23972 C10.9578741,18.3998819 12.0361235,19.2414698 13.3073229,19.2642738 C12.3085234,20.0490507 11.054349,20.5153675 9.69234967,20.5153675 C9.45967478,20.5153675 9.22699989,20.5039939 9,20.4755599 C10.2825494,21.2944007 11.8147986,21.7777778 13.4548729,21.7777778" id="Fill-1" fill="#FFFFFF" mask="url(#mask-2)"></path>
                </g>
            </g>
        </g>
    </g>
</svg>