<?xml version="1.0" encoding="UTF-8"?>
<svg width="27px" height="22px" viewBox="0 0 27 22" version="1.1" xmlns="http://www.w3.org/2000/svg" xmlns:xlink="http://www.w3.org/1999/xlink">
    <!-- Generator: Sketch 47 (45396) - http://www.bohemiancoding.com/sketch -->
    <title>Fill 1</title>
    <desc>Created with Sketch.</desc>
    <defs></defs>
    <g id="jeanius_desktop" stroke="none" stroke-width="1" fill="none" fill-rule="evenodd">
        <g id="post" transform="translate(-658.000000, -3165.000000)" fill="#000000">
            <g id="section-share" transform="translate(434.000000, 3131.000000)">
                <g id="twiiter" transform="translate(224.000000, 34.000000)">
                    <path d="M8.48139256,22 C18.6698679,22 24.244898,13.5335728 24.244898,6.20384843 C24.244898,5.96555118 24.244898,5.7273622 24.2340936,5.48917323 C25.3145258,4.70964567 26.2545018,3.72440945 27,2.60925197 C26.0060024,3.05314961 24.9363745,3.34547244 23.8127251,3.48622047 C24.9579832,2.80413386 25.8331333,1.71073819 26.2545018,0.411525591 C25.1848739,1.05019685 23.9963986,1.50492126 22.7322929,1.75393701 C21.7166867,0.671259843 20.2797119,0 18.6914766,0 C15.6338535,0 13.1488595,2.49015748 13.1488595,5.55424213 C13.1488595,5.98731299 13.2028812,6.40944882 13.2893157,6.82086614 C8.68667467,6.59350394 4.60264106,4.37401575 1.86914766,1.01771654 C1.3937575,1.84055118 1.12364946,2.79341535 1.12364946,3.81102362 C1.12364946,5.73818898 2.10684274,7.43799213 3.58703481,8.43405512 C2.67947179,8.4015748 1.82593037,8.15266732 1.08043217,7.74114173 L1.08043217,7.81692913 C1.08043217,10.5019685 2.99279712,12.7540453 5.5210084,13.2629035 C5.05642257,13.3927165 4.57022809,13.4577854 4.06242497,13.4577854 C3.70588235,13.4577854 3.36014406,13.4253051 3.02521008,13.3602362 C3.727491,15.5690059 5.78031212,17.1712598 8.20048019,17.2146752 C6.29891957,18.7087697 3.91116447,19.596565 1.31812725,19.596565 C0.87515006,19.596565 0.432172869,19.5749114 0,19.5207776 C2.44177671,21.0797244 5.35894358,22 8.48139256,22" id="Fill-1"></path>
                </g>
            </g>
        </g>
    </g>
</svg>