<?xml version="1.0" encoding="UTF-8"?>
<svg width="38px" height="38px" viewBox="0 0 38 38" version="1.1" xmlns="http://www.w3.org/2000/svg" xmlns:xlink="http://www.w3.org/1999/xlink">
    <!-- Generator: Sketch 47 (45396) - http://www.bohemiancoding.com/sketch -->
    <title>youtube</title>
    <desc>Created with Sketch.</desc>
    <defs></defs>
    <g id="Symbols" stroke="none" stroke-width="1" fill="none" fill-rule="evenodd">
        <g id="Footer" transform="translate(-1365.000000, -25.000000)">
            <g id="youtube" transform="translate(1365.000000, 25.000000)">
                <circle id="Oval-3" fill="#FFFFFF" cx="19" cy="19" r="19"></circle>
                <path d="M17.1417064,20.8974768 L17.1408782,15.7041576 L22.0045524,18.3098648 L17.1417064,20.8974768 Z M27.8202555,14.8044829 C27.8202555,14.8044829 27.6443879,13.5307806 27.104661,12.969884 C26.420187,12.2337175 25.65296,12.2300622 25.301119,12.1869776 C22.7822821,12 19.0038945,12 19.0038945,12 L18.9960703,12 C18.9960703,12 15.2177708,12 12.6988458,12.1869776 C12.3469871,12.2300622 11.5800421,12.2337175 10.8953214,12.969884 C10.3556297,13.5307806 10.1800088,14.8044829 10.1800088,14.8044829 C10.1800088,14.8044829 10,16.3002312 10,17.7959614 L10,19.1982119 C10,20.6939241 10.1800088,22.1896543 10.1800088,22.1896543 C10.1800088,22.1896543 10.3556297,23.4633746 10.8953214,24.0242712 C11.5800421,24.7604559 12.4794694,24.7371674 12.8800705,24.8143253 C14.3200881,24.9561192 19,25 19,25 C19,25 22.7822821,24.9941553 25.301119,24.8071958 C25.65296,24.764093 26.420187,24.7604559 27.104661,24.0242712 C27.6443879,23.4633746 27.8202555,22.1896543 27.8202555,22.1896543 C27.8202555,22.1896543 28,20.6939241 28,19.1982119 L28,17.7959614 C28,16.3002312 27.8202555,14.8044829 27.8202555,14.8044829 L27.8202555,14.8044829 Z" id="Fill-3" fill="#000000"></path>
            </g>
        </g>
    </g>
</svg>