<?xml version="1.0" encoding="UTF-8"?>
<svg width="31px" height="31px" viewBox="0 0 31 31" version="1.1" xmlns="http://www.w3.org/2000/svg" xmlns:xlink="http://www.w3.org/1999/xlink">
    <!-- Generator: Sketch 47 (45396) - http://www.bohemiancoding.com/sketch -->
    <title>youtube</title>
    <desc>Created with Sketch.</desc>
    <defs></defs>
    <g id="Symbols" stroke="none" stroke-width="1" fill="none" fill-rule="evenodd">
        <g id="Header" transform="translate(-1341.000000, -24.000000)">
            <g id="youtube">
                <g transform="translate(1341.000000, 24.000000)">
                    <circle id="Oval-3" fill="#000000" cx="15.5" cy="15.5" r="15.5"></circle>
                    <path d="M13.951422,17.1048232 L13.9507318,12.8842226 L18.0037936,15.0018759 L13.951422,17.1048232 Z M22.8502129,12.1530587 C22.8502129,12.1530587 22.7036566,11.1179233 22.2538842,10.6620838 C21.6834892,10.0638026 21.0441333,10.060832 20.7509325,10.0258172 C18.6519017,9.87386085 15.5032454,9.87386085 15.5032454,9.87386085 L15.4967252,9.87386085 C15.4967252,9.87386085 12.3481423,9.87386085 10.2490381,10.0258172 C9.95582261,10.060832 9.31670175,10.0638026 8.74610113,10.6620838 C8.29635812,11.1179233 8.15000734,12.1530587 8.15000734,12.1530587 C8.15000734,12.1530587 8,13.3686505 8,14.5842276 L8,15.7238339 C8,16.9393963 8.15000734,18.1549733 8.15000734,18.1549733 C8.15000734,18.1549733 8.29635812,19.1901234 8.74610113,19.645963 C9.31670175,20.2442589 10.0662245,20.2253323 10.4000587,20.2880384 C11.6000734,20.403274 15.5,20.4389359 15.5,20.4389359 C15.5,20.4389359 18.6519017,20.4341859 20.7509325,20.2822443 C21.0441333,20.2472148 21.6834892,20.2442589 22.2538842,19.645963 C22.7036566,19.1901234 22.8502129,18.1549733 22.8502129,18.1549733 C22.8502129,18.1549733 23,16.9393963 23,15.7238339 L23,14.5842276 C23,13.3686505 22.8502129,12.1530587 22.8502129,12.1530587 L22.8502129,12.1530587 Z" id="Fill-3" fill="#FFFFFF"></path>
                </g>
            </g>
        </g>
    </g>
</svg>